<svg width="65" height="64" viewBox="0 0 65 64" fill="none" xmlns="http://www.w3.org/2000/svg">
<path d="M32.8875 64C50.5606 64 64.8875 49.6731 64.8875 32C64.8875 14.3269 50.5606 0 32.8875 0C15.2144 0 0.887512 14.3269 0.887512 32C0.887512 49.6731 15.2144 64 32.8875 64Z" fill="#ECB13A"/>
<path d="M31.9875 60.8125C48.7286 60.8125 62.3 47.2411 62.3 30.5C62.3 13.7589 48.7286 0.1875 31.9875 0.1875C15.2464 0.1875 1.67499 13.7589 1.67499 30.5C1.67499 47.2411 15.2464 60.8125 31.9875 60.8125Z" fill="#FFDE4F"/>
<path d="M31.9501 32.9625C23.425 32.9625 16.475 38.6 16.475 45.525C16.475 46.1 16.9375 46.5625 17.5125 46.5625C18.0875 46.5625 18.55 46.1 18.55 45.525C18.55 39.7375 24.5625 35.0375 31.9501 35.0375C39.3376 35.0375 45.3501 39.75 45.3501 45.525C45.3501 46.1 45.8126 46.5625 46.3876 46.5625C46.9626 46.5625 47.4251 46.1 47.4251 45.525C47.4251 38.6 40.4751 32.9625 31.9501 32.9625Z" fill="#645033"/>
<path d="M18.8125 24.7875C21.1873 24.7875 23.1125 22.8623 23.1125 20.4875C23.1125 18.1127 21.1873 16.1875 18.8125 16.1875C16.4377 16.1875 14.5125 18.1127 14.5125 20.4875C14.5125 22.8623 16.4377 24.7875 18.8125 24.7875Z" fill="#645033"/>
<path d="M46.55 24.8378C48.9248 24.8378 50.85 22.9126 50.85 20.5378C50.85 18.163 48.9248 16.2378 46.55 16.2378C44.1752 16.2378 42.25 18.163 42.25 20.5378C42.25 22.9126 44.1752 24.8378 46.55 24.8378Z" fill="#645033"/>
</svg>
