<svg width="20" height="20" viewBox="0 0 20 20" fill="none" xmlns="http://www.w3.org/2000/svg">
<path d="M17.8947 18.1818H6.31579V5.45455H17.8947M17.8947 3.63636H6.31579C5.75744 3.63636 5.22196 3.82792 4.82714 4.1689C4.43233 4.50987 4.21053 4.97233 4.21053 5.45455V18.1818C4.21053 18.664 4.43233 19.1265 4.82714 19.4675C5.22196 19.8084 5.75744 20 6.31579 20H17.8947C18.4531 20 18.9886 19.8084 19.3834 19.4675C19.7782 19.1265 20 18.664 20 18.1818V5.45455C20 4.97233 19.7782 4.50987 19.3834 4.1689C18.9886 3.82792 18.4531 3.63636 17.8947 3.63636ZM14.7368 0H2.10526C1.54691 0 1.01143 0.191558 0.616617 0.532533C0.221804 0.873508 0 1.33597 0 1.81818V14.5455H2.10526V1.81818H14.7368V0Z" fill="#01A9A0"/>
</svg>
